<?xml version="1.0" standalone="no"?>
<!DOCTYPE svg PUBLIC "-//W3C//DTD SVG 20010904//EN"
 "http://www.w3.org/TR/2001/REC-SVG-20010904/DTD/svg10.dtd">
<svg version="1.0" xmlns="http://www.w3.org/2000/svg"
 width="512.000000pt" height="512.000000pt" viewBox="0 0 512.000000 512.000000"
 preserveAspectRatio="xMidYMid meet">
<metadata>
Created by potrace 1.11, written by Peter Selinger 2001-2013
</metadata>
<g transform="translate(0.000000,512.000000) scale(0.100000,-0.100000)"
fill="#000000" stroke="none">
<path d="M2365 4784 c-232 -42 -437 -154 -609 -332 -84 -87 -158 -200 -212
-326 -18 -41 -29 -52 -58 -62 l-36 -13 0 199 c0 192 1 199 21 205 11 4 29 21
40 38 54 90 -20 208 -122 194 -125 -17 -154 -167 -46 -240 16 -11 18 -33 18
-230 l1 -218 -24 -27 c-49 -54 -69 -86 -84 -140 -15 -50 -20 -133 -11 -172 11
-51 35 -101 68 -145 42 -54 79 -83 150 -114 40 -18 47 -26 62 -73 45 -141 146
-297 279 -427 48 -47 88 -94 88 -104 0 -116 248 -239 535 -265 420 -38 782 81
808 265 2 12 44 63 94 112 100 100 187 222 234 329 18 40 36 69 42 65 6 -4 7
-1 2 7 -4 6 -2 29 5 50 9 28 22 41 49 53 108 49 188 182 188 313 0 29 4 57 8
64 5 8 4 11 -2 7 -6 -4 -15 12 -22 36 -7 23 -23 58 -36 78 -23 35 -23 41 -24
283 l0 246 28 15 c30 15 61 69 61 104 0 65 -62 131 -123 131 -47 0 -96 -29
-116 -69 -29 -58 -12 -133 37 -163 l27 -17 0 -205 c0 -113 -2 -206 -4 -206
-21 0 -82 38 -87 54 -4 12 -26 60 -50 109 -105 211 -274 380 -494 493 -41 21
-77 39 -80 39 -3 1 -38 11 -78 24 -40 12 -105 28 -143 36 -93 17 -285 17 -384
-1z m413 -272 c270 -78 481 -271 571 -524 112 -315 37 -652 -197 -884 -101
-100 -297 -216 -338 -200 -8 3 -13 2 -10 -2 11 -18 -144 -45 -248 -44 -576 4
-979 574 -790 1116 25 72 85 188 109 213 8 7 22 26 31 41 27 44 154 151 234
198 76 45 163 78 260 100 86 19 290 11 378 -14z"/>
<path d="M2214 4063 c-12 -2 -32 -15 -45 -29 -21 -23 -24 -37 -27 -117 -3
-107 7 -134 59 -160 29 -14 42 -15 64 -7 59 23 73 56 69 178 -1 75 -4 85 -28
107 -15 14 -31 25 -36 25 -4 0 -14 2 -22 4 -7 2 -23 1 -34 -1z"/>
<path d="M2842 4055 c-52 -23 -62 -68 -53 -232 0 -12 12 -34 26 -49 44 -48
132 -29 156 34 6 15 9 66 7 113 -3 74 -6 89 -28 115 -29 33 -61 39 -108 19z"/>
<path d="M2240 3360 c0 -14 9 -43 19 -66 72 -159 399 -201 548 -71 39 35 72
97 73 137 l0 25 -320 0 -320 0 0 -25z"/>
<path d="M1709 2705 c-3 -2 -22 -7 -42 -10 -147 -24 -352 -169 -491 -349 -66
-85 -126 -173 -126 -183 0 -4 -6 -14 -13 -22 -18 -21 -100 -208 -127 -291 -73
-219 -78 -445 -13 -595 27 -64 31 -67 64 -49 51 26 113 99 210 248 52 80 117
180 144 222 28 43 55 79 60 81 12 4 32 -62 70 -227 48 -205 124 -417 199 -553
61 -113 71 -130 83 -146 7 -9 33 -44 58 -78 63 -86 171 -192 252 -249 37 -27
70 -51 73 -54 3 -3 34 -19 70 -37 216 -106 416 -123 630 -53 284 92 546 350
704 692 38 83 114 282 121 318 15 75 91 369 98 378 14 17 25 6 81 -82 26 -43
44 -81 40 -87 -4 -7 -3 -9 3 -6 6 4 45 -49 89 -116 100 -155 157 -222 212
-251 l32 -16 24 48 c78 153 74 389 -10 631 -55 158 -175 380 -264 486 -43 51
-163 170 -205 202 -93 71 -230 134 -319 146 -43 6 -49 1 -135 -101 -72 -85
-267 -173 -461 -208 -132 -23 -492 -23 -530 1 -4 3 -25 7 -46 11 -71 11 -169
46 -255 90 -86 45 -133 82 -199 161 -32 38 -69 60 -81 48z"/>
</g>
</svg>
